<svg xmlns="http://www.w3.org/2000/svg" xmlns:xlink="http://www.w3.org/1999/xlink" xmlns:lucid="lucid" width="1760" height="1360"><g transform="translate(0 0)" lucid:page-tab-id="0_0"><path d="M0 0h1760v1360H0z" fill="#fff"/><path d="M668.8 443.84c0 33.14-35.82 60-80 60s-80-26.86-80-60c0-33.13 35.82-60 80-60s80 26.87 80 60z" stroke="#000" stroke-opacity="0" fill="#3278cc"/><use xlink:href="#a" transform="matrix(1,0,0,1,508.80182132161144,383.8421305048813) translate(59.25125925925926 64.94444444444444)"/><path d="M1046.25 632.78c0 33.13-35.82 60-80 60s-80-26.87-80-60c0-33.14 35.82-60 80-60s80 26.86 80 60z" stroke="#000" stroke-opacity="0" fill="#3278cc"/><use xlink:href="#b" transform="matrix(1,0,0,1,886.25,572.775481000788) translate(16.14940740740741 64.94444444444444)"/><use xlink:href="#c" transform="matrix(1,0,0,1,886.25,572.775481000788) translate(54.86545679012346 64.94444444444444)"/><use xlink:href="#d" transform="matrix(1,0,0,1,886.25,572.775481000788) translate(77.3345925925926 64.94444444444444)"/><path d="M766.25 702.7c0 33.13-35.82 60-80 60s-80-26.87-80-60c0-33.14 35.82-60 80-60s80 26.86 80 60z" stroke="#000" stroke-opacity="0" fill="#3278cc"/><use xlink:href="#e" transform="matrix(1,0,0,1,606.25,642.6961254841475) translate(41.513604938271605 64.94444444444444)"/><use xlink:href="#f" transform="matrix(1,0,0,1,606.25,642.6961254841475) translate(76.94570370370371 64.94444444444444)"/><path d="M1331.25 835.4c0 33.13-35.82 60-80 60s-80-26.87-80-60c0-33.15 35.82-60 80-60s80 26.85 80 60z" stroke="#000" stroke-opacity="0" fill="#3278cc"/><use xlink:href="#g" transform="matrix(1,0,0,1,1171.25,775.3915826860684) translate(32.46113580246914 64.94444444444444)"/><use xlink:href="#f" transform="matrix(1,0,0,1,1171.25,775.3915826860684) translate(85.99817283950617 64.94444444444444)"/><path d="M912.55 463.84c0 33.14-35.82 60-80 60s-80-26.86-80-60c0-33.13 35.82-60 80-60s80 26.87 80 60z" stroke="#000" stroke-opacity="0" fill="#3278cc"/><use xlink:href="#h" transform="matrix(1,0,0,1,752.5518213216114,403.8421305048811) translate(19.93027160493827 64.94444444444444)"/><use xlink:href="#i" transform="matrix(1,0,0,1,752.5518213216114,403.8421305048811) translate(80.38088888888889 64.94444444444444)"/><path d="M986.25 794.08c0 33.14-35.82 60-80 60s-80-26.86-80-60c0-33.13 35.82-60 80-60s80 26.87 80 60z" stroke="#000" stroke-opacity="0" fill="#3278cc"/><use xlink:href="#j" transform="matrix(1,0,0,1,826.25,734.0835318434282) translate(35.15314814814814 46.19444444444444)"/><use xlink:href="#k" transform="matrix(1,0,0,1,826.25,734.0835318434282) translate(112.8012962962963 46.19444444444444)"/><use xlink:href="#l" transform="matrix(1,0,0,1,826.25,734.0835318434282) translate(43.898148148148145 64.86111111111111)"/><use xlink:href="#m" transform="matrix(1,0,0,1,826.25,734.0835318434282) translate(48.504999999999995 83.52777777777779)"/><path d="M1326.25 583.84c0 33.14-35.82 60-80 60s-80-26.86-80-60 35.82-60 80-60 80 26.86 80 60z" stroke="#000" stroke-opacity="0" fill="#3278cc"/><use xlink:href="#n" transform="matrix(1,0,0,1,1166.25,523.839264284397) translate(22.11237037037037 64.94444444444444)"/><use xlink:href="#f" transform="matrix(1,0,0,1,1166.25,523.839264284397) translate(96.34693827160494 64.94444444444444)"/><path d="M704.77 159.75c0 10.9-8.84 19.75-19.75 19.75-10.9 0-19.75-8.84-19.75-19.75 0-10.9 8.84-19.75 19.75-19.75 10.9 0 19.75 8.84 19.75 19.75z" stroke="#333" fill="#fff"/><path d="M685.02 179.5v50.3c0 2.76 1.2 6.9 2.67 9.22L725 298m-40-63.2l-40 63.2m0-98.75h80" stroke="#333" fill="none"/><path d="M645.02 145c0-2.76 2.24-5 5-5h70c2.76 0 5 2.24 5 5v170c0 2.76-2.24 5-5 5h-70c-2.76 0-5-2.24-5-5z" fill="none"/><use xlink:href="#o" transform="matrix(1,0,0,1,565.0201889172895,298) translate(97.91295679012346 24.444444444444446)"/><path d="M279.75 679.75c0 10.9-8.84 19.75-19.75 19.75-10.9 0-19.75-8.84-19.75-19.75 0-10.9 8.84-19.75 19.75-19.75 10.9 0 19.75 8.84 19.75 19.75z" stroke="#333" fill="#fff"/><path d="M260 699.5v50.3c0 2.76 1.2 6.9 2.67 9.22L300 818m-40-63.2L220 818m0-98.75h80" stroke="#333" fill="none"/><path d="M220 665c0-2.76 2.24-5 5-5h70c2.76 0 5 2.24 5 5v170c0 2.76-2.24 5-5 5h-70c-2.76 0-5-2.24-5-5z" fill="none"/><use xlink:href="#p" transform="matrix(1,0,0,1,140,818) translate(68.98394444444445 24.444444444444446)"/><path d="M1599.75 599.75c0 10.9-8.84 19.75-19.75 19.75-10.9 0-19.75-8.84-19.75-19.75 0-10.9 8.84-19.75 19.75-19.75 10.9 0 19.75 8.84 19.75 19.75z" stroke="#333" fill="#fff"/><path d="M1580 619.5v50.3c0 2.76 1.2 6.9 2.67 9.22L1620 738m-40-63.2l-40 63.2m0-98.75h80" stroke="#333" fill="none"/><path d="M1540 585c0-2.76 2.24-5 5-5h70c2.76 0 5 2.24 5 5v170c0 2.76-2.24 5-5 5h-70c-2.76 0-5-2.24-5-5z" fill="none"/><use xlink:href="#q" transform="matrix(1,0,0,1,1460,737.9999999999998) translate(86.65678395061728 24.444444444444446)"/><path d="M410 378.84c0-2.76 2.24-5 5-5h1010c2.76 0 5 2.24 5 5v930c0 2.76-2.24 5-5 5H415c-2.76 0-5-2.24-5-5z" stroke="#333" fill-opacity="0"/><use xlink:href="#r" transform="matrix(1,0,0,1,418,381.8392642843968) translate(479.4808580246913 15.11111111111111)"/><path d="M1061.47 69.07c0-4.4 3.58-8 8-8h505.5c4.42 0 8 3.6 8 8v26.15c0 4.42-3.58 8-8 8h-505.5c-4.42 0-8-3.58-8-8z" stroke="#000" stroke-opacity="0" stroke-width="2" fill="#fff" fill-opacity="0"/><use xlink:href="#s" transform="matrix(1,0,0,1,1061.4658427796662,61.07333333333332) translate(116.70074074074074 24.98777777777778)"/><use xlink:href="#t" transform="matrix(1,0,0,1,1061.4658427796662,61.07333333333332) translate(182.03777777777776 24.98777777777778)"/><use xlink:href="#u" transform="matrix(1,0,0,1,1061.4658427796662,61.07333333333332) translate(237.32296296296295 24.98777777777778)"/><use xlink:href="#v" transform="matrix(1,0,0,1,1061.4658427796662,61.07333333333332) translate(307.17604938271603 24.98777777777778)"/><path d="M1068.8 101.85h506.84M1068.82 101.85h-4.03M1575.62 101.85h4.02" stroke="#b2b2b2" stroke-width="2" fill="none"/><path d="M1040 111.22c0-4.42 3.58-8 8-8h548.44c4.42 0 8 3.58 8 8v41.85c0 4.42-3.58 8-8 8H1048c-4.42 0-8-3.58-8-8z" stroke="#000" stroke-opacity="0" stroke-width="2" fill="#fff" fill-opacity="0"/><use xlink:href="#w" transform="matrix(1,0,0,1,1040,103.21999999999998) translate(106.35470164609058 16.24703703703704)"/><use xlink:href="#x" transform="matrix(1,0,0,1,1040,103.21999999999998) translate(145.44523662551444 16.24703703703704)"/><use xlink:href="#y" transform="matrix(1,0,0,1,1040,103.21999999999998) translate(218.4425617283951 16.24703703703704)"/><use xlink:href="#z" transform="matrix(1,0,0,1,1040,103.21999999999998) translate(277.8006893004116 16.24703703703704)"/><use xlink:href="#A" transform="matrix(1,0,0,1,1040,103.21999999999998) translate(341.4927674897119 16.24703703703704)"/><use xlink:href="#B" transform="matrix(1,0,0,1,1040,103.21999999999998) translate(353.9422530864198 16.24703703703704)"/><use xlink:href="#C" transform="matrix(1,0,0,1,1040,103.21999999999998) translate(405.77970164609053 16.24703703703704)"/><use xlink:href="#D" transform="matrix(1,0,0,1,1040,103.21999999999998) translate(431.27352880658435 16.24703703703704)"/><use xlink:href="#E" transform="matrix(1,0,0,1,1040,103.21999999999998) translate(103.40166666666673 37.28259259259259)"/><use xlink:href="#F" transform="matrix(1,0,0,1,1040,103.21999999999998) translate(145.84888888888895 37.28259259259259)"/><use xlink:href="#G" transform="matrix(1,0,0,1,1040,103.21999999999998) translate(182.39004115226342 37.28259259259259)"/><use xlink:href="#H" transform="matrix(1,0,0,1,1040,103.21999999999998) translate(261.33592592592595 37.28259259259259)"/><use xlink:href="#A" transform="matrix(1,0,0,1,1040,103.21999999999998) translate(344.44580246913586 37.28259259259259)"/><use xlink:href="#B" transform="matrix(1,0,0,1,1040,103.21999999999998) translate(356.8952880658436 37.28259259259259)"/><use xlink:href="#C" transform="matrix(1,0,0,1,1040,103.21999999999998) translate(408.73273662551435 37.28259259259259)"/><use xlink:href="#D" transform="matrix(1,0,0,1,1040,103.21999999999998) translate(434.2265637860082 37.28259259259259)"/><path d="M1326.73 583.97l212.8 55.65" stroke="#333" fill="none"/><path d="M1326.87 583.5l-.25.95-.4-.1.03-.5v-.53zM1540 639.23v.52h1.98l1.05.28-.25.96-3.4-.9.25-.96z" fill="#333"/><path d="M1331.6 835.05l208.04-194.96" stroke="#333" fill="none"/><path d="M1331.97 835.4l-.74.7.02-.7v-.68l.03-.04zM1540 639.75h.73l-.76.72-.7-.73.73-.68zm2.53-1.7l-.73.7h-1.46l1.5-1.42z" fill="#333"/><path d="M1246.25 1213.84c0 33.14-35.82 60-80 60s-80-26.86-80-60 35.82-60 80-60 80 26.86 80 60z" stroke="#000" stroke-opacity="0" fill="#3278cc"/><use xlink:href="#I" transform="matrix(1,0,0,1,1086.25,1153.839264284397) translate(9.387061728395052 64.94444444444444)"/><use xlink:href="#J" transform="matrix(1,0,0,1,1086.25,1153.839264284397) translate(57.73891358024691 64.94444444444444)"/><use xlink:href="#K" transform="matrix(1,0,0,1,1086.25,1153.839264284397) translate(103.02286419753086 64.94444444444444)"/><path d="M1170.84 835.1L967 693.3" fill="none"/><path d="M1170.84 835.1l-4-2.77m-4-2.8l-8-5.55m-4-2.78l-7.98-5.56m-4-2.78l-8-5.56m-4-2.78l-7.98-5.56m-4-2.78l-8-5.56m-4-2.78l-7.98-5.57m-4-2.78l-8-5.57m-4-2.78l-7.98-5.56m-4-2.8l-8-5.55m-4-2.78l-8-5.56m-3.98-2.77l-8-5.56m-4-2.8l-8-5.55m-3.98-2.78l-8-5.56m-4-2.78l-8-5.56m-4-2.78L987 707.2m-4-2.78l-8-5.56m-4-2.78l-3.98-2.8" stroke="#666" fill="none"/><path d="M1171.27 834.8l-.02.6v.61l-.7-.5.56-.8z" fill="#666"/><path d="M987 694.8l-19.94-1.46 8.3 18.18" stroke="#666" fill="none"/><use xlink:href="#L" transform="matrix(1,0,0,1,1020.7666060728882,789.4396337347854) translate(0 12.444444444444446)"/><path d="M725.64 297.84L832.2 403.5" stroke="#333" fill="none"/><path d="M726 297.5l-.7.7-.23-.23.37-.24-1.35-2.14zm-2.7-1.27l-.5-.5.12-.12zM833.28 403.86l-.73-.02h-.7l.7-.7z" fill="#333"/><path d="M724.87 297.76l-132.68 85.9" stroke="#333" fill="none"/><path d="M725.44 297.73l-.43.28-.42-.66.44-.28zM592.4 383.95l-1.5-.04 1.03-.66z" fill="#333"/><path d="M605.75 702.72l-313.4 17" stroke="#333" fill="none"/><path d="M606.25 702.7v.5l-.48.02-.06-1 .57-.03z" fill="#333"/><path d="M292.37 719.72l-3.5.2" stroke="#333" fill="none"/><path d="M588.4 504.13L527 548.3" fill="none"/><path d="M588.4 504.13l-4.1 2.95m-4.1 2.94l-8.18 5.9m-4.1 2.94l-8.18 5.9m-4.1 2.93l-8.18 5.88m-4.1 2.95l-8.18 5.9m-4.1 2.93l-4.1 2.95" stroke="#666" fill="none"/><path d="M588.8 503.84h.86l-.98.7-.52-.72z" fill="#666"/><path d="M535.08 529.95l-8.03 18.32 19.92-1.8" stroke="#666" fill="none"/><use xlink:href="#L" transform="matrix(1,0,0,1,570.206256202277,515.9807039137203) translate(0 12.444444444444446)"/><path d="M846.25 879.56h136l24 24v96h-160z" stroke="#333" fill="#3278cc"/><path d="M982.25 880.04v23.52h23.52" stroke="#333" fill="#3278cc"/><use xlink:href="#M" transform="matrix(1,0,0,1,846.25,879.5631953849223) translate(13.751290123456792 53.69444444444444)"/><use xlink:href="#N" transform="matrix(1,0,0,1,846.25,879.5631953849223) translate(73.33770987654322 53.69444444444444)"/><use xlink:href="#O" transform="matrix(1,0,0,1,846.25,879.5631953849223) translate(115.6401790123457 53.69444444444444)"/><use xlink:href="#P" transform="matrix(1,0,0,1,846.25,879.5631953849223) translate(41.175925925925924 72.36111111111111)"/><use xlink:href="#Q" transform="matrix(1,0,0,1,846.25,879.5631953849223) translate(63.601851851851855 72.36111111111111)"/><path d="M500.42 961.17L292.18 720.13" stroke="#333" fill="none"/><path d="M500.75 961.55v.77l-.7-.83.72-.64z" fill="#333"/><path d="M292.2 720.14l-2.3-2.66" stroke="#333" fill="none"/><path d="M701.25 961.55c0 44.18-44.77 80-100 80s-100-35.82-100-80 44.77-80 100-80 100 35.82 100 80zm-200 0h200" stroke="#333" fill="#3278cc"/><use xlink:href="#R" transform="matrix(1,0,0,1,531.25,897.5501204634139) translate(36.025 35.6)"/><use xlink:href="#S" transform="matrix(1,0,0,1,531.25,897.5501204634139) translate(68.975 35.6)"/><use xlink:href="#T" transform="matrix(1,0,0,1,531.25,985.5501204634139) translate(21.025 14.4)"/><use xlink:href="#U" transform="matrix(1,0,0,1,531.25,985.5501204634139) translate(83.975 14.4)"/><use xlink:href="#V" transform="matrix(1,0,0,1,531.25,985.5501204634139) translate(33.525 36)"/><use xlink:href="#W" transform="matrix(1,0,0,1,501.25,961.5501204634139) translate(27.174999999999983 15.6)"/><use xlink:href="#X" transform="matrix(1,0,0,1,501.25,961.5501204634139) translate(117.975 15.6)"/><path d="M661.25 1200c0 33.14-35.82 60-80 60s-80-26.86-80-60 35.82-60 80-60 80 26.86 80 60z" stroke="#333" fill="#3278cc"/><use xlink:href="#Y" transform="matrix(1,0,0,1,501.25,1140) translate(28.529999999999994 63.15)"/><use xlink:href="#Z" transform="matrix(1,0,0,1,501.25,1140) translate(33.529999999999994 63.15)"/><use xlink:href="#S" transform="matrix(1,0,0,1,501.25,1140) translate(96.48 63.15)"/><path d="M571.27 1097c0-2.75 2.24-5 5-5h58.1c2.77 0 5 2.25 5 5v10c0 2.77-2.23 5-5 5h-58.1c-2.76 0-5-2.23-5-5z" stroke="#000" stroke-opacity="0" fill="#fff" fill-opacity="0"/><path d="M581.35 1139l19.72-96.06" fill="none"/><path d="M581.35 1139l.94-4.56m.93-4.58l1.88-9.15m.94-4.56l1.88-9.15m.94-4.6l1.88-9.14m.94-4.57l1.88-9.16m.93-4.58l1.87-9.15m.94-4.56l1.9-9.15m.93-4.58l.94-4.58" stroke="#666" fill="none"/><path d="M581.84 1139.1l-.08.42-.5-.02h-.52l.12-.6z" fill="#666"/><path d="M607.56 1061.92l-6.5-18.9-13.44 14.8" stroke="#666" fill="none"/><g><use xlink:href="#aa" transform="matrix(1,0,0,1,489.1035687647573,1097.694344774835) translate(0 12.444444444444446)"/></g><path d="M1351.25 993.84c0 44.18-44.77 80-100 80s-100-35.82-100-80 44.77-80 100-80 100 35.82 100 80zm-200 0h200" stroke="#333" fill="#3278cc"/><g><use xlink:href="#ab" transform="matrix(1,0,0,1,1181.25,929.839264284397) translate(1.5749999999999886 24.799999999999997)"/><use xlink:href="#ac" transform="matrix(1,0,0,1,1181.25,929.839264284397) translate(57.52499999999999 24.799999999999997)"/><use xlink:href="#ad" transform="matrix(1,0,0,1,1181.25,929.839264284397) translate(56.025 46.4)"/></g><g><use xlink:href="#ae" transform="matrix(1,0,0,1,1181.25,1017.839264284397) translate(19.799999999999997 14.4)"/><use xlink:href="#af" transform="matrix(1,0,0,1,1181.25,1017.839264284397) translate(72.19999999999999 14.4)"/><use xlink:href="#ag" transform="matrix(1,0,0,1,1181.25,1017.839264284397) translate(70 36)"/></g><g><use xlink:href="#W" transform="matrix(1,0,0,1,1151.25,993.839264284397) translate(27.174999999999983 15.6)"/><use xlink:href="#X" transform="matrix(1,0,0,1,1151.25,993.839264284397) translate(117.975 15.6)"/></g><path d="M1539.57 640.55l-187.6 352.85" fill="none"/><path d="M1539.57 640.55l-2.34 4.4m-2.35 4.42l-9.38 17.65m-2.34 4.4l-4.7 8.83m-2.34 4.4l-9.37 17.65m-2.35 4.4l-4.7 8.83m-2.33 4.4L1488 737.6m-2.36 4.4l-4.7 8.82m-2.33 4.4l-9.37 17.65m-2.35 4.4l-4.7 8.83m-2.33 4.4l-9.38 17.65m-2.35 4.4l-4.7 8.84m-2.33 4.4l-9.4 17.64m-2.34 4.4l-4.68 8.83m-2.35 4.4l-9.38 17.65m-2.34 4.4l-4.68 8.83m-2.35 4.42L1394.2 914m-2.35 4.42l-4.7 8.82m-2.34 4.4l-9.37 17.65m-2.34 4.4l-4.7 8.82m-2.35 4.4l-9.38 17.66m-2.34 4.4l-2.35 4.42M1540.45 660.6l-.9-19.98-17.08 10.42" stroke="#333" fill="none"/><path d="M1352.43 993.62l-.7 1.34.02-1.12v-.58z" fill="#333"/><path d="M606.25 608.84c0 33.14-35.82 60-80 60s-80-26.86-80-60 35.82-60 80-60 80 26.86 80 60z" stroke="#000" stroke-opacity="0" fill="#3278cc"/><g><use xlink:href="#ah" transform="matrix(1,0,0,1,446.25,548.8406973946389) translate(22.587679012345674 64.94444444444444)"/><use xlink:href="#ai" transform="matrix(1,0,0,1,446.25,548.8406973946389) translate(65.71113580246913 64.94444444444444)"/></g><path d="M1166.62 1153.5l83.97-78.54" fill="none"/><path d="M1166.62 1153.5l3.5-3.27m3.5-3.28l7-6.54m3.5-3.26l7-6.55m3.5-3.28l6.98-6.55m3.5-3.27l7-6.54m3.5-3.28l7-6.54m3.5-3.27l7-6.55m3.5-3.27l7-6.54m3.5-3.27l3.5-3.27" stroke="#666" fill="none"/><path d="M1166.97 1153.85h-1.46l.78-.73z" fill="#666"/><path d="M1244.9 1094.2l5.63-19.2-19.52 4.33" stroke="#666" fill="none"/><g><use xlink:href="#aa" transform="matrix(1,0,0,1,1093.9283841855622,1118.0462304751545) translate(0 12.444444444444446)"/></g><path d="M1539.5 639.82l-632.76 94.2" stroke="#333" fill="none"/><path d="M1540 639.75h3.03v.05l-3.46.52-.15-1 .58-.08zM906.77 734.1l-.52-.02h-.9l-2.12.1-.02-.15 3.48-.52z" fill="#333"/><path d="M825.75 794l-528.27-74.18" stroke="#333" fill="none"/><path d="M826.27 793.58l-.02.5v.51l-.58-.1.14-.98z" fill="#333"/><path d="M297.5 719.82l-3.48-.5M708.54 230H1575c2.76 0 5 2.24 5 5v344" stroke="#333" fill="none"/><path d="M686.52 230l21.52-12.73v25.46z" stroke="#333" fill="#fff"/><path d="M1580.5 579.56l-.47-.06h-.53v-.5h1z" fill="#333"/><path d="M708.54 230h12c2.76 0 5-2.24 5-5V105c0-2.76-2.24-5-5-5H265c-2.76 0-5 2.24-5 5v554" stroke="#333" fill="none"/><path d="M686.52 230l21.52-12.73v25.46z" stroke="#333" fill="#fff"/><path d="M260.5 659.56l-.47-.06h-.53v-.5h1z" fill="#333"/><path d="M900 1180c0 33.14-35.82 60-80 60s-80-26.86-80-60 35.82-60 80-60 80 26.86 80 60z" stroke="#333" fill="#3278cc"/><g><use xlink:href="#aj" transform="matrix(1,0,0,1,740,1120) translate(54.53 40.65)"/><use xlink:href="#ak" transform="matrix(1,0,0,1,740,1120) translate(40.029999999999994 62.25)"/><use xlink:href="#al" transform="matrix(1,0,0,1,740,1120) translate(43.53 83.85000000000001)"/></g><path d="M819.53 1119.33l-217.42-76.98" fill="none"/><path d="M819.53 1119.33l-4.83-1.7m-4.83-1.72l-9.67-3.4m-4.83-1.72l-9.66-3.42m-4.82-1.7l-9.67-3.43m-4.82-1.7l-9.66-3.44m-4.83-1.72l-9.68-3.42m-4.83-1.7l-9.67-3.43m-4.83-1.7l-9.67-3.43m-4.83-1.7l-9.66-3.43m-4.83-1.7l-9.66-3.44m-4.83-1.7l-9.65-3.43m-4.83-1.7l-9.67-3.43m-4.83-1.7l-9.66-3.43m-4.83-1.7l-9.67-3.43m-4.83-1.7l-9.66-3.43m-4.83-1.7l-4.83-1.72" stroke="#666" fill="none"/><path d="M821.64 1119.55l-1.63-.05h-.54l.22-.64z" fill="#666"/><path d="M621.8 1038.53l-19.62 3.85 12.83 15.34" stroke="#666" fill="none"/><g><use xlink:href="#aa" transform="matrix(1,0,0,1,667.6841077818797,1095.4285462292044) translate(0 12.444444444444446)"/></g><defs><path fill="#fff" d="M30 0v-248h33v221h125V0H30" id="am"/><path fill="#fff" d="M100-194c62-1 85 37 85 99 1 63-27 99-86 99S16-35 15-95c0-66 28-99 85-99zM99-20c44 1 53-31 53-75 0-43-8-75-51-75s-53 32-53 75 10 74 51 75" id="an"/><path fill="#fff" d="M177-190C167-65 218 103 67 71c-23-6-38-20-44-43l32-5c15 47 100 32 89-28v-30C133-14 115 1 83 1 29 1 15-40 15-95c0-56 16-97 71-98 29-1 48 16 59 35 1-10 0-23 2-32h30zM94-22c36 0 50-32 50-73 0-42-14-75-50-75-39 0-46 34-46 75s6 73 46 73" id="ao"/><path fill="#fff" d="M24-231v-30h32v30H24zM24 0v-190h32V0H24" id="ap"/><path fill="#fff" d="M117-194c89-4 53 116 60 194h-32v-121c0-31-8-49-39-48C34-167 62-67 57 0H25l-1-190h30c1 10-1 24 2 32 11-22 29-35 61-36" id="aq"/><g id="a"><use transform="matrix(0.04320987654320988,0,0,0.04320987654320988,0,0)" xlink:href="#am"/><use transform="matrix(0.04320987654320988,0,0,0.04320987654320988,8.641975308641976,0)" xlink:href="#an"/><use transform="matrix(0.04320987654320988,0,0,0.04320987654320988,17.283950617283953,0)" xlink:href="#ao"/><use transform="matrix(0.04320987654320988,0,0,0.04320987654320988,25.925925925925927,0)" xlink:href="#ap"/><use transform="matrix(0.04320987654320988,0,0,0.04320987654320988,29.339506172839513,0)" xlink:href="#aq"/></g><path fill="#fff" d="M63-220v92h138v28H63V0H30v-248h175v28H63" id="ar"/><path fill="#fff" d="M24 0v-261h32V0H24" id="as"/><path fill="#fff" d="M59-47c-2 24 18 29 38 22v24C64 9 27 4 27-40v-127H5v-23h24l9-43h21v43h35v23H59v120" id="at"/><path fill="#fff" d="M100-194c63 0 86 42 84 106H49c0 40 14 67 53 68 26 1 43-12 49-29l28 8c-11 28-37 45-77 45C44 4 14-33 15-96c1-61 26-98 85-98zm52 81c6-60-76-77-97-28-3 7-6 17-6 28h103" id="au"/><path fill="#fff" d="M114-163C36-179 61-72 57 0H25l-1-190h30c1 12-1 29 2 39 6-27 23-49 58-41v29" id="av"/><g id="b"><use transform="matrix(0.04320987654320988,0,0,0.04320987654320988,0,0)" xlink:href="#ar"/><use transform="matrix(0.04320987654320988,0,0,0.04320987654320988,9.462962962962964,0)" xlink:href="#ap"/><use transform="matrix(0.04320987654320988,0,0,0.04320987654320988,12.876543209876544,0)" xlink:href="#as"/><use transform="matrix(0.04320987654320988,0,0,0.04320987654320988,16.290123456790127,0)" xlink:href="#at"/><use transform="matrix(0.04320987654320988,0,0,0.04320987654320988,20.611111111111114,0)" xlink:href="#au"/><use transform="matrix(0.04320987654320988,0,0,0.04320987654320988,29.25308641975309,0)" xlink:href="#av"/></g><path fill="#fff" d="M160-131c35 5 61 23 61 61C221 17 115-2 30 0v-248c76 3 177-17 177 60 0 33-19 50-47 57zm-97-11c50-1 110 9 110-42 0-47-63-36-110-37v79zm0 115c55-2 124 14 124-45 0-56-70-42-124-44v89" id="aw"/><path fill="#fff" d="M179-190L93 31C79 59 56 82 12 73V49c39 6 53-20 64-50L1-190h34L92-34l54-156h33" id="ax"/><g id="c"><use transform="matrix(0.04320987654320988,0,0,0.04320987654320988,0,0)" xlink:href="#aw"/><use transform="matrix(0.04320987654320988,0,0,0.04320987654320988,10.370370370370372,0)" xlink:href="#ax"/></g><path fill="#fff" d="M212-179c-10-28-35-45-73-45-59 0-87 40-87 99 0 60 29 101 89 101 43 0 62-24 78-52l27 14C228-24 195 4 139 4 59 4 22-46 18-125c-6-104 99-153 187-111 19 9 31 26 39 46" id="ay"/><path fill="#fff" d="M141-36C126-15 110 5 73 4 37 3 15-17 15-53c-1-64 63-63 125-63 3-35-9-54-41-54-24 1-41 7-42 31l-33-3c5-37 33-52 76-52 45 0 72 20 72 64v82c-1 20 7 32 28 27v20c-31 9-61-2-59-35zM48-53c0 20 12 33 32 33 41-3 63-29 60-74-43 2-92-5-92 41" id="az"/><g id="d"><use transform="matrix(0.04320987654320988,0,0,0.04320987654320988,0,0)" xlink:href="#ay"/><use transform="matrix(0.04320987654320988,0,0,0.04320987654320988,11.19135802469136,0)" xlink:href="#az"/><use transform="matrix(0.04320987654320988,0,0,0.04320987654320988,19.833333333333336,0)" xlink:href="#at"/><use transform="matrix(0.04320987654320988,0,0,0.04320987654320988,24.154320987654323,0)" xlink:href="#au"/><use transform="matrix(0.04320987654320988,0,0,0.04320987654320988,32.7962962962963,0)" xlink:href="#ao"/><use transform="matrix(0.04320987654320988,0,0,0.04320987654320988,41.43827160493827,0)" xlink:href="#an"/><use transform="matrix(0.04320987654320988,0,0,0.04320987654320988,50.08024691358024,0)" xlink:href="#av"/><use transform="matrix(0.04320987654320988,0,0,0.04320987654320988,55.22222222222222,0)" xlink:href="#ax"/></g><path fill="#fff" d="M30-248c87 1 191-15 191 75 0 78-77 80-158 76V0H30v-248zm33 125c57 0 124 11 124-50 0-59-68-47-124-48v98" id="aA"/><path fill="#fff" d="M135-143c-3-34-86-38-87 0 15 53 115 12 119 90S17 21 10-45l28-5c4 36 97 45 98 0-10-56-113-15-118-90-4-57 82-63 122-42 12 7 21 19 24 35" id="aB"/><g id="e"><use transform="matrix(0.04320987654320988,0,0,0.04320987654320988,0,0)" xlink:href="#aA"/><use transform="matrix(0.04320987654320988,0,0,0.04320987654320988,10.370370370370372,0)" xlink:href="#an"/><use transform="matrix(0.04320987654320988,0,0,0.04320987654320988,19.01234567901235,0)" xlink:href="#aB"/><use transform="matrix(0.04320987654320988,0,0,0.04320987654320988,26.790123456790127,0)" xlink:href="#at"/></g><path fill="#fff" d="M33 0v-248h34V0H33" id="aC"/><path fill="#fff" d="M85-194c31 0 48 13 60 33l-1-100h32l1 261h-30c-2-10 0-23-3-31C134-8 116 4 85 4 32 4 16-35 15-94c0-66 23-100 70-100zm9 24c-40 0-46 34-46 75 0 40 6 74 45 74 42 0 51-32 51-76 0-42-9-74-50-73" id="aD"/><g id="f"><use transform="matrix(0.04320987654320988,0,0,0.04320987654320988,0,0)" xlink:href="#aC"/><use transform="matrix(0.04320987654320988,0,0,0.04320987654320988,4.320987654320988,0)" xlink:href="#aD"/><use transform="matrix(0.04320987654320988,0,0,0.04320987654320988,12.962962962962964,0)" xlink:href="#au"/><use transform="matrix(0.04320987654320988,0,0,0.04320987654320988,21.604938271604944,0)" xlink:href="#az"/><use transform="matrix(0.04320987654320988,0,0,0.04320987654320988,30.24691358024692,0)" xlink:href="#aB"/></g><path fill="#fff" d="M185-189c-5-48-123-54-124 2 14 75 158 14 163 119 3 78-121 87-175 55-17-10-28-26-33-46l33-7c5 56 141 63 141-1 0-78-155-14-162-118-5-82 145-84 179-34 5 7 8 16 11 25" id="aE"/><path fill="#fff" d="M96-169c-40 0-48 33-48 73s9 75 48 75c24 0 41-14 43-38l32 2c-6 37-31 61-74 61-59 0-76-41-82-99-10-93 101-131 147-64 4 7 5 14 7 22l-32 3c-4-21-16-35-41-35" id="aF"/><path fill="#fff" d="M106-169C34-169 62-67 57 0H25v-261h32l-1 103c12-21 28-36 61-36 89 0 53 116 60 194h-32v-121c2-32-8-49-39-48" id="aG"/><g id="g"><use transform="matrix(0.04320987654320988,0,0,0.04320987654320988,0,0)" xlink:href="#aE"/><use transform="matrix(0.04320987654320988,0,0,0.04320987654320988,10.370370370370372,0)" xlink:href="#au"/><use transform="matrix(0.04320987654320988,0,0,0.04320987654320988,19.01234567901235,0)" xlink:href="#az"/><use transform="matrix(0.04320987654320988,0,0,0.04320987654320988,27.654320987654323,0)" xlink:href="#av"/><use transform="matrix(0.04320987654320988,0,0,0.04320987654320988,32.7962962962963,0)" xlink:href="#aF"/><use transform="matrix(0.04320987654320988,0,0,0.04320987654320988,40.574074074074076,0)" xlink:href="#aG"/></g><path fill="#fff" d="M240 0l2-218c-23 76-54 145-80 218h-23L58-218 59 0H30v-248h44l77 211c21-75 51-140 76-211h43V0h-30" id="aH"/><g id="h"><use transform="matrix(0.04320987654320988,0,0,0.04320987654320988,0,0)" xlink:href="#aH"/><use transform="matrix(0.04320987654320988,0,0,0.04320987654320988,12.919753086419755,0)" xlink:href="#az"/><use transform="matrix(0.04320987654320988,0,0,0.04320987654320988,21.56172839506173,0)" xlink:href="#aq"/><use transform="matrix(0.04320987654320988,0,0,0.04320987654320988,30.203703703703713,0)" xlink:href="#az"/><use transform="matrix(0.04320987654320988,0,0,0.04320987654320988,38.845679012345684,0)" xlink:href="#ao"/><use transform="matrix(0.04320987654320988,0,0,0.04320987654320988,47.48765432098766,0)" xlink:href="#au"/></g><path fill="#fff" d="M205 0l-28-72H64L36 0H1l101-248h38L239 0h-34zm-38-99l-47-123c-12 45-31 82-46 123h93" id="aI"/><path fill="#fff" d="M84 4C-5 8 30-112 23-190h32v120c0 31 7 50 39 49 72-2 45-101 50-169h31l1 190h-30c-1-10 1-25-2-33-11 22-28 36-60 37" id="aJ"/><g id="i"><use transform="matrix(0.04320987654320988,0,0,0.04320987654320988,0,0)" xlink:href="#aI"/><use transform="matrix(0.04320987654320988,0,0,0.04320987654320988,10.370370370370372,0)" xlink:href="#aF"/><use transform="matrix(0.04320987654320988,0,0,0.04320987654320988,18.148148148148152,0)" xlink:href="#aF"/><use transform="matrix(0.04320987654320988,0,0,0.04320987654320988,25.925925925925927,0)" xlink:href="#an"/><use transform="matrix(0.04320987654320988,0,0,0.04320987654320988,34.567901234567906,0)" xlink:href="#aJ"/><use transform="matrix(0.04320987654320988,0,0,0.04320987654320988,43.20987654320988,0)" xlink:href="#aq"/><use transform="matrix(0.04320987654320988,0,0,0.04320987654320988,51.851851851851855,0)" xlink:href="#at"/></g><path fill="#fff" d="M115-194c55 1 70 41 70 98S169 2 115 4C84 4 66-9 55-30l1 105H24l-1-265h31l2 30c10-21 28-34 59-34zm-8 174c40 0 45-34 45-75s-6-73-45-74c-42 0-51 32-51 76 0 43 10 73 51 73" id="aK"/><g id="j"><use transform="matrix(0.04320987654320988,0,0,0.04320987654320988,0,0)" xlink:href="#aA"/><use transform="matrix(0.04320987654320988,0,0,0.04320987654320988,10.370370370370372,0)" xlink:href="#az"/><use transform="matrix(0.04320987654320988,0,0,0.04320987654320988,19.01234567901235,0)" xlink:href="#av"/><use transform="matrix(0.04320987654320988,0,0,0.04320987654320988,24.154320987654323,0)" xlink:href="#at"/><use transform="matrix(0.04320987654320988,0,0,0.04320987654320988,28.47530864197531,0)" xlink:href="#ap"/><use transform="matrix(0.04320987654320988,0,0,0.04320987654320988,31.888888888888893,0)" xlink:href="#aF"/><use transform="matrix(0.04320987654320988,0,0,0.04320987654320988,39.66666666666667,0)" xlink:href="#ap"/><use transform="matrix(0.04320987654320988,0,0,0.04320987654320988,43.080246913580254,0)" xlink:href="#aK"/><use transform="matrix(0.04320987654320988,0,0,0.04320987654320988,51.72222222222223,0)" xlink:href="#az"/><use transform="matrix(0.04320987654320988,0,0,0.04320987654320988,60.3641975308642,0)" xlink:href="#at"/><use transform="matrix(0.04320987654320988,0,0,0.04320987654320988,64.68518518518519,0)" xlink:href="#au"/></g><g id="k"><use transform="matrix(0.04320987654320988,0,0,0.04320987654320988,0,0)" xlink:href="#ap"/><use transform="matrix(0.04320987654320988,0,0,0.04320987654320988,3.4135802469135808,0)" xlink:href="#aq"/></g><path fill="#fff" d="M137 0h-34L2-248h35l83 218 83-218h36" id="aL"/><g id="l"><use transform="matrix(0.04320987654320988,0,0,0.04320987654320988,0,0)" xlink:href="#aL"/><use transform="matrix(0.04320987654320988,0,0,0.04320987654320988,10.067901234567902,0)" xlink:href="#ap"/><use transform="matrix(0.04320987654320988,0,0,0.04320987654320988,13.481481481481483,0)" xlink:href="#aD"/><use transform="matrix(0.04320987654320988,0,0,0.04320987654320988,22.12345679012346,0)" xlink:href="#au"/><use transform="matrix(0.04320987654320988,0,0,0.04320987654320988,30.765432098765434,0)" xlink:href="#an"/><use transform="matrix(0.04320987654320988,0,0,0.04320987654320988,39.40740740740741,0)" xlink:href="#ay"/><use transform="matrix(0.04320987654320988,0,0,0.04320987654320988,50.59876543209877,0)" xlink:href="#aG"/><use transform="matrix(0.04320987654320988,0,0,0.04320987654320988,59.24074074074075,0)" xlink:href="#az"/><use transform="matrix(0.04320987654320988,0,0,0.04320987654320988,67.88271604938272,0)" xlink:href="#at"/></g><g id="m"><use transform="matrix(0.04320987654320988,0,0,0.04320987654320988,0,0)" xlink:href="#aH"/><use transform="matrix(0.04320987654320988,0,0,0.04320987654320988,12.919753086419755,0)" xlink:href="#au"/><use transform="matrix(0.04320987654320988,0,0,0.04320987654320988,21.56172839506173,0)" xlink:href="#au"/><use transform="matrix(0.04320987654320988,0,0,0.04320987654320988,30.203703703703713,0)" xlink:href="#at"/><use transform="matrix(0.04320987654320988,0,0,0.04320987654320988,34.5246913580247,0)" xlink:href="#ap"/><use transform="matrix(0.04320987654320988,0,0,0.04320987654320988,37.93827160493828,0)" xlink:href="#aq"/><use transform="matrix(0.04320987654320988,0,0,0.04320987654320988,46.580246913580254,0)" xlink:href="#ao"/><use transform="matrix(0.04320987654320988,0,0,0.04320987654320988,55.22222222222223,0)" xlink:href="#aB"/></g><path fill="#fff" d="M143 0L79-87 56-68V0H24v-261h32v163l83-92h37l-77 82L181 0h-38" id="aM"/><g id="n"><use transform="matrix(0.04320987654320988,0,0,0.04320987654320988,0,0)" xlink:href="#aw"/><use transform="matrix(0.04320987654320988,0,0,0.04320987654320988,10.370370370370372,0)" xlink:href="#an"/><use transform="matrix(0.04320987654320988,0,0,0.04320987654320988,19.01234567901235,0)" xlink:href="#an"/><use transform="matrix(0.04320987654320988,0,0,0.04320987654320988,27.654320987654323,0)" xlink:href="#aM"/><use transform="matrix(0.04320987654320988,0,0,0.04320987654320988,35.4320987654321,0)" xlink:href="#aH"/><use transform="matrix(0.04320987654320988,0,0,0.04320987654320988,48.351851851851855,0)" xlink:href="#az"/><use transform="matrix(0.04320987654320988,0,0,0.04320987654320988,56.99382716049384,0)" xlink:href="#av"/><use transform="matrix(0.04320987654320988,0,0,0.04320987654320988,62.1358024691358,0)" xlink:href="#aM"/></g><path fill="#333" d="M232-93c-1 65-40 97-104 97C67 4 28-28 28-90v-158h33c8 89-33 224 67 224 102 0 64-133 71-224h33v155" id="aN"/><path fill="#333" d="M135-143c-3-34-86-38-87 0 15 53 115 12 119 90S17 21 10-45l28-5c4 36 97 45 98 0-10-56-113-15-118-90-4-57 82-63 122-42 12 7 21 19 24 35" id="aO"/><path fill="#333" d="M100-194c63 0 86 42 84 106H49c0 40 14 67 53 68 26 1 43-12 49-29l28 8c-11 28-37 45-77 45C44 4 14-33 15-96c1-61 26-98 85-98zm52 81c6-60-76-77-97-28-3 7-6 17-6 28h103" id="aP"/><path fill="#333" d="M114-163C36-179 61-72 57 0H25l-1-190h30c1 12-1 29 2 39 6-27 23-49 58-41v29" id="aQ"/><g id="o"><use transform="matrix(0.04320987654320988,0,0,0.04320987654320988,0,0)" xlink:href="#aN"/><use transform="matrix(0.04320987654320988,0,0,0.04320987654320988,11.19135802469136,0)" xlink:href="#aO"/><use transform="matrix(0.04320987654320988,0,0,0.04320987654320988,18.96913580246914,0)" xlink:href="#aP"/><use transform="matrix(0.04320987654320988,0,0,0.04320987654320988,27.611111111111114,0)" xlink:href="#aQ"/></g><path fill="#333" d="M30 0v-248h187v28H63v79h144v27H63v87h162V0H30" id="aR"/><path fill="#333" d="M117-194c89-4 53 116 60 194h-32v-121c0-31-8-49-39-48C34-167 62-67 57 0H25l-1-190h30c1 10-1 24 2 32 11-22 29-35 61-36" id="aS"/><path fill="#333" d="M59-47c-2 24 18 29 38 22v24C64 9 27 4 27-40v-127H5v-23h24l9-43h21v43h35v23H59v120" id="aT"/><path fill="#333" d="M115-194c55 1 70 41 70 98S169 2 115 4C84 4 66-9 55-30l1 105H24l-1-265h31l2 30c10-21 28-34 59-34zm-8 174c40 0 45-34 45-75s-6-73-45-74c-42 0-51 32-51 76 0 43 10 73 51 73" id="aU"/><path fill="#333" d="M84 4C-5 8 30-112 23-190h32v120c0 31 7 50 39 49 72-2 45-101 50-169h31l1 190h-30c-1-10 1-25-2-33-11 22-28 36-60 37" id="aV"/><g id="p"><use transform="matrix(0.04320987654320988,0,0,0.04320987654320988,0,0)" xlink:href="#aR"/><use transform="matrix(0.04320987654320988,0,0,0.04320987654320988,10.370370370370372,0)" xlink:href="#aS"/><use transform="matrix(0.04320987654320988,0,0,0.04320987654320988,19.01234567901235,0)" xlink:href="#aT"/><use transform="matrix(0.04320987654320988,0,0,0.04320987654320988,23.333333333333336,0)" xlink:href="#aQ"/><use transform="matrix(0.04320987654320988,0,0,0.04320987654320988,28.47530864197531,0)" xlink:href="#aP"/><use transform="matrix(0.04320987654320988,0,0,0.04320987654320988,37.117283950617285,0)" xlink:href="#aU"/><use transform="matrix(0.04320987654320988,0,0,0.04320987654320988,45.75925925925927,0)" xlink:href="#aQ"/><use transform="matrix(0.04320987654320988,0,0,0.04320987654320988,50.90123456790123,0)" xlink:href="#aP"/><use transform="matrix(0.04320987654320988,0,0,0.04320987654320988,59.54320987654321,0)" xlink:href="#aS"/><use transform="matrix(0.04320987654320988,0,0,0.04320987654320988,68.18518518518519,0)" xlink:href="#aP"/><use transform="matrix(0.04320987654320988,0,0,0.04320987654320988,76.82716049382717,0)" xlink:href="#aV"/><use transform="matrix(0.04320987654320988,0,0,0.04320987654320988,85.46913580246914,0)" xlink:href="#aQ"/></g><path fill="#333" d="M33 0v-248h34V0H33" id="aW"/><path fill="#333" d="M108 0H70L1-190h34L89-25l56-165h34" id="aX"/><path fill="#333" d="M100-194c62-1 85 37 85 99 1 63-27 99-86 99S16-35 15-95c0-66 28-99 85-99zM99-20c44 1 53-31 53-75 0-43-8-75-51-75s-53 32-53 75 10 74 51 75" id="aY"/><g id="q"><use transform="matrix(0.04320987654320988,0,0,0.04320987654320988,0,0)" xlink:href="#aW"/><use transform="matrix(0.04320987654320988,0,0,0.04320987654320988,4.320987654320988,0)" xlink:href="#aS"/><use transform="matrix(0.04320987654320988,0,0,0.04320987654320988,12.962962962962964,0)" xlink:href="#aX"/><use transform="matrix(0.04320987654320988,0,0,0.04320987654320988,20.740740740740744,0)" xlink:href="#aP"/><use transform="matrix(0.04320987654320988,0,0,0.04320987654320988,29.382716049382726,0)" xlink:href="#aO"/><use transform="matrix(0.04320987654320988,0,0,0.04320987654320988,37.1604938271605,0)" xlink:href="#aT"/><use transform="matrix(0.04320987654320988,0,0,0.04320987654320988,41.48148148148149,0)" xlink:href="#aY"/><use transform="matrix(0.04320987654320988,0,0,0.04320987654320988,50.12345679012346,0)" xlink:href="#aQ"/></g><path fill="#333" d="M190 0L58-211 59 0H30v-248h39L202-35l-2-213h31V0h-41" id="aZ"/><path fill="#333" d="M209 0H11v-25l151-195H24v-28h176v25L50-27h159V0" id="ba"/><g id="r"><use transform="matrix(0.04320987654320988,0,0,0.04320987654320988,0,0)" xlink:href="#aZ"/><use transform="matrix(0.04320987654320988,0,0,0.04320987654320988,11.19135802469136,0)" xlink:href="#aP"/><use transform="matrix(0.04320987654320988,0,0,0.04320987654320988,19.833333333333336,0)" xlink:href="#aT"/><use transform="matrix(0.04320987654320988,0,0,0.04320987654320988,24.154320987654323,0)" xlink:href="#ba"/></g><path fill="#b2b2b2" d="M175 0L67-191c6 58 2 128 3 191H24v-248h59L193-55c-6-58-2-129-3-193h46V0h-61" id="bb"/><path fill="#b2b2b2" d="M185-48c-13 30-37 53-82 52C43 2 14-33 14-96s30-98 90-98c62 0 83 45 84 108H66c0 31 8 55 39 56 18 0 30-7 34-22zm-45-69c5-46-57-63-70-21-2 6-4 13-4 21h74" id="bc"/><path fill="#b2b2b2" d="M115-3C79 11 28 4 28-45v-112H4v-33h27l15-45h31v45h36v33H77v99c-1 23 16 31 38 25v30" id="bd"/><path fill="#b2b2b2" d="M210 0H11v-37l134-170H24v-41h178v36L68-41h142V0" id="be"/><g id="s"><use transform="matrix(0.0728395061728395,0,0,0.0728395061728395,0,0)" xlink:href="#bb"/><use transform="matrix(0.0728395061728395,0,0,0.0728395061728395,18.86543209876543,0)" xlink:href="#bc"/><use transform="matrix(0.0728395061728395,0,0,0.0728395061728395,33.43333333333333,0)" xlink:href="#bd"/><use transform="matrix(0.0728395061728395,0,0,0.0728395061728395,42.10123456790124,0)" xlink:href="#be"/></g><path fill="#b2b2b2" d="M238-95c0 69-44 99-111 99C63 4 22-25 22-93v-155h51v151c-1 38 19 59 55 60 90 1 49-130 58-211h52v153" id="bf"/><path fill="#b2b2b2" d="M137-138c1-29-70-34-71-4 15 46 118 7 119 86 1 83-164 76-172 9l43-7c4 19 20 25 44 25 33 8 57-30 24-41C81-84 22-81 20-136c-2-80 154-74 161-7" id="bg"/><g id="t"><use transform="matrix(0.0728395061728395,0,0,0.0728395061728395,0,0)" xlink:href="#bf"/><use transform="matrix(0.0728395061728395,0,0,0.0728395061728395,18.86543209876543,0)" xlink:href="#bg"/><use transform="matrix(0.0728395061728395,0,0,0.0728395061728395,33.43333333333333,0)" xlink:href="#bc"/></g><path fill="#b2b2b2" d="M67-125c0 53 21 87 73 88 37 1 54-22 65-47l45 17C233-25 199 4 140 4 58 4 20-42 15-125 8-235 124-281 211-232c18 10 29 29 36 50l-46 12c-8-25-30-41-62-41-52 0-71 34-72 86" id="bh"/><path fill="#b2b2b2" d="M133-34C117-15 103 5 69 4 32 3 11-16 11-54c-1-60 55-63 116-61 1-26-3-47-28-47-18 1-26 9-28 27l-52-2c7-38 36-58 82-57s74 22 75 68l1 82c-1 14 12 18 25 15v27c-30 8-71 5-69-32zm-48 3c29 0 43-24 42-57-32 0-66-3-65 30 0 17 8 27 23 27" id="bi"/><g id="u"><use transform="matrix(0.0728395061728395,0,0,0.0728395061728395,0,0)" xlink:href="#bh"/><use transform="matrix(0.0728395061728395,0,0,0.0728395061728395,18.86543209876543,0)" xlink:href="#bi"/><use transform="matrix(0.0728395061728395,0,0,0.0728395061728395,33.43333333333333,0)" xlink:href="#bg"/><use transform="matrix(0.0728395061728395,0,0,0.0728395061728395,48.00123456790123,0)" xlink:href="#bc"/></g><path fill="#b2b2b2" d="M24-248c120-7 223 5 221 122C244-46 201 0 124 0H24v-248zM76-40c74 7 117-18 117-86 0-67-45-88-117-82v168" id="bj"/><path fill="#b2b2b2" d="M25-224v-37h50v37H25zM25 0v-190h50V0H25" id="bk"/><path fill="#b2b2b2" d="M195-6C206 82 75 100 31 46c-4-6-6-13-8-21l49-6c3 16 16 24 34 25 40 0 42-37 40-79-11 22-30 35-61 35-53 0-70-43-70-97 0-56 18-96 73-97 30 0 46 14 59 34l2-30h47zm-90-29c32 0 41-27 41-63 0-35-9-62-40-62-32 0-39 29-40 63 0 36 9 62 39 62" id="bl"/><path fill="#b2b2b2" d="M135-150c-39-12-60 13-60 57V0H25l-1-190h47c2 13-1 29 3 40 6-28 27-53 61-41v41" id="bm"/><path fill="#b2b2b2" d="M220-157c-53 9-28 100-34 157h-49v-107c1-27-5-49-29-50C55-147 81-57 75 0H25l-1-190h47c2 12-1 28 3 38 10-53 101-56 108 0 13-22 24-43 59-42 82 1 51 116 57 194h-49v-107c-1-25-5-48-29-50" id="bn"/><g id="v"><use transform="matrix(0.0728395061728395,0,0,0.0728395061728395,0,0)" xlink:href="#bj"/><use transform="matrix(0.0728395061728395,0,0,0.0728395061728395,18.86543209876543,0)" xlink:href="#bk"/><use transform="matrix(0.0728395061728395,0,0,0.0728395061728395,26.14938271604938,0)" xlink:href="#bi"/><use transform="matrix(0.0728395061728395,0,0,0.0728395061728395,40.717283950617286,0)" xlink:href="#bl"/><use transform="matrix(0.0728395061728395,0,0,0.0728395061728395,56.66913580246913,0)" xlink:href="#bm"/><use transform="matrix(0.0728395061728395,0,0,0.0728395061728395,66.86666666666666,0)" xlink:href="#bi"/><use transform="matrix(0.0728395061728395,0,0,0.0728395061728395,81.43456790123457,0)" xlink:href="#bn"/></g><path fill="#b2b2b2" d="M30 0v-248h187v28H63v79h144v27H63v87h162V0H30" id="bo"/><path fill="#b2b2b2" d="M85-194c31 0 48 13 60 33l-1-100h32l1 261h-30c-2-10 0-23-3-31C134-8 116 4 85 4 32 4 16-35 15-94c0-66 23-100 70-100zm9 24c-40 0-46 34-46 75 0 40 6 74 45 74 42 0 51-32 51-76 0-42-9-74-50-73" id="bp"/><path fill="#b2b2b2" d="M179-190L93 31C79 59 56 82 12 73V49c39 6 53-20 64-50L1-190h34L92-34l54-156h33" id="bq"/><g id="w"><use transform="matrix(0.04248971193415638,0,0,0.04248971193415638,0,0)" xlink:href="#bo"/><use transform="matrix(0.04248971193415638,0,0,0.04248971193415638,10.19753086419753,0)" xlink:href="#bp"/><use transform="matrix(0.04248971193415638,0,0,0.04248971193415638,18.695473251028805,0)" xlink:href="#bp"/><use transform="matrix(0.04248971193415638,0,0,0.04248971193415638,27.193415637860078,0)" xlink:href="#bq"/></g><path fill="#b2b2b2" d="M205 0l-28-72H64L36 0H1l101-248h38L239 0h-34zm-38-99l-47-123c-12 45-31 82-46 123h93" id="br"/><path fill="#b2b2b2" d="M24 0v-261h32V0H24" id="bs"/><path fill="#b2b2b2" d="M100-194c63 0 86 42 84 106H49c0 40 14 67 53 68 26 1 43-12 49-29l28 8c-11 28-37 45-77 45C44 4 14-33 15-96c1-61 26-98 85-98zm52 81c6-60-76-77-97-28-3 7-6 17-6 28h103" id="bt"/><path fill="#b2b2b2" d="M141 0L90-78 38 0H4l68-98-65-92h35l48 74 47-74h35l-64 92 68 98h-35" id="bu"/><path fill="#b2b2b2" d="M141-36C126-15 110 5 73 4 37 3 15-17 15-53c-1-64 63-63 125-63 3-35-9-54-41-54-24 1-41 7-42 31l-33-3c5-37 33-52 76-52 45 0 72 20 72 64v82c-1 20 7 32 28 27v20c-31 9-61-2-59-35zM48-53c0 20 12 33 32 33 41-3 63-29 60-74-43 2-92-5-92 41zm25-158c8-23 27-35 38-54h36v5l-58 49H73" id="bv"/><path fill="#b2b2b2" d="M117-194c89-4 53 116 60 194h-32v-121c0-31-8-49-39-48C34-167 62-67 57 0H25l-1-190h30c1 10-1 24 2 32 11-22 29-35 61-36" id="bw"/><path fill="#b2b2b2" d="M114-163C36-179 61-72 57 0H25l-1-190h30c1 12-1 29 2 39 6-27 23-49 58-41v29" id="bx"/><g id="x"><use transform="matrix(0.04248971193415638,0,0,0.04248971193415638,0,0)" xlink:href="#br"/><use transform="matrix(0.04248971193415638,0,0,0.04248971193415638,10.19753086419753,0)" xlink:href="#bs"/><use transform="matrix(0.04248971193415638,0,0,0.04248971193415638,13.554218106995881,0)" xlink:href="#bt"/><use transform="matrix(0.04248971193415638,0,0,0.04248971193415638,22.05216049382716,0)" xlink:href="#bu"/><use transform="matrix(0.04248971193415638,0,0,0.04248971193415638,29.700308641975308,0)" xlink:href="#bv"/><use transform="matrix(0.04248971193415638,0,0,0.04248971193415638,38.19825102880658,0)" xlink:href="#bw"/><use transform="matrix(0.04248971193415638,0,0,0.04248971193415638,46.69619341563786,0)" xlink:href="#bp"/><use transform="matrix(0.04248971193415638,0,0,0.04248971193415638,55.194135802469134,0)" xlink:href="#bt"/><use transform="matrix(0.04248971193415638,0,0,0.04248971193415638,63.69207818930041,0)" xlink:href="#bx"/></g><path fill="#b2b2b2" d="M212-179c-10-28-35-45-73-45-59 0-87 40-87 99 0 60 29 101 89 101 43 0 62-24 78-52l27 14C228-24 195 4 139 4 59 4 22-46 18-125c-6-104 99-153 187-111 19 9 31 26 39 46" id="by"/><path fill="#b2b2b2" d="M141-36C126-15 110 5 73 4 37 3 15-17 15-53c-1-64 63-63 125-63 3-35-9-54-41-54-24 1-41 7-42 31l-33-3c5-37 33-52 76-52 45 0 72 20 72 64v82c-1 20 7 32 28 27v20c-31 9-61-2-59-35zM48-53c0 20 12 33 32 33 41-3 63-29 60-74-43 2-92-5-92 41" id="bz"/><path fill="#b2b2b2" d="M115-194c53 0 69 39 70 98 0 66-23 100-70 100C84 3 66-7 56-30L54 0H23l1-261h32v101c10-23 28-34 59-34zm-8 174c40 0 45-34 45-75 0-40-5-75-45-74-42 0-51 32-51 76 0 43 10 73 51 73" id="bA"/><g id="y"><use transform="matrix(0.04248971193415638,0,0,0.04248971193415638,0,0)" xlink:href="#by"/><use transform="matrix(0.04248971193415638,0,0,0.04248971193415638,11.004835390946502,0)" xlink:href="#bz"/><use transform="matrix(0.04248971193415638,0,0,0.04248971193415638,19.502777777777776,0)" xlink:href="#bA"/><use transform="matrix(0.04248971193415638,0,0,0.04248971193415638,28.000720164609046,0)" xlink:href="#bx"/><use transform="matrix(0.04248971193415638,0,0,0.04248971193415638,33.056995884773656,0)" xlink:href="#bt"/><use transform="matrix(0.04248971193415638,0,0,0.04248971193415638,41.55493827160493,0)" xlink:href="#bx"/><use transform="matrix(0.04248971193415638,0,0,0.04248971193415638,46.61121399176954,0)" xlink:href="#bz"/></g><path fill="#b2b2b2" d="M63-220v92h138v28H63V0H30v-248h175v28H63" id="bB"/><path fill="#b2b2b2" d="M84 4C-5 8 30-112 23-190h32v120c0 31 7 50 39 49 72-2 45-101 50-169h31l1 190h-30c-1-10 1-25-2-33-11 22-28 36-60 37" id="bC"/><path fill="#b2b2b2" d="M59-47c-2 24 18 29 38 22v24C64 9 27 4 27-40v-127H5v-23h24l9-43h21v43h35v23H59v120" id="bD"/><path fill="#b2b2b2" d="M135-143c-3-34-86-38-87 0 15 53 115 12 119 90S17 21 10-45l28-5c4 36 97 45 98 0-10-56-113-15-118-90-4-57 82-63 122-42 12 7 21 19 24 35" id="bE"/><g id="z"><use transform="matrix(0.04248971193415638,0,0,0.04248971193415638,0,0)" xlink:href="#bB"/><use transform="matrix(0.04248971193415638,0,0,0.04248971193415638,9.305246913580246,0)" xlink:href="#bC"/><use transform="matrix(0.04248971193415638,0,0,0.04248971193415638,17.80318930041152,0)" xlink:href="#bt"/><use transform="matrix(0.04248971193415638,0,0,0.04248971193415638,26.301131687242794,0)" xlink:href="#bw"/><use transform="matrix(0.04248971193415638,0,0,0.04248971193415638,34.79907407407407,0)" xlink:href="#bD"/><use transform="matrix(0.04248971193415638,0,0,0.04248971193415638,39.048045267489705,0)" xlink:href="#bt"/><use transform="matrix(0.04248971193415638,0,0,0.04248971193415638,47.54598765432099,0)" xlink:href="#bE"/></g><path fill="#b2b2b2" d="M32 76v-337h29V76H32" id="bF"/><use transform="matrix(0.04248971193415638,0,0,0.04248971193415638,0,0)" xlink:href="#bF" id="A"/><path fill="#b2b2b2" d="M177-190C167-65 218 103 67 71c-23-6-38-20-44-43l32-5c15 47 100 32 89-28v-30C133-14 115 1 83 1 29 1 15-40 15-95c0-56 16-97 71-98 29-1 48 16 59 35 1-10 0-23 2-32h30zM94-22c36 0 50-32 50-73 0-42-14-75-50-75-39 0-46 34-46 75s6 73 46 73" id="bG"/><g id="B"><use transform="matrix(0.04248971193415638,0,0,0.04248971193415638,0,0)" xlink:href="#br"/><use transform="matrix(0.04248971193415638,0,0,0.04248971193415638,10.19753086419753,0)" xlink:href="#bC"/><use transform="matrix(0.04248971193415638,0,0,0.04248971193415638,18.695473251028805,0)" xlink:href="#bG"/><use transform="matrix(0.04248971193415638,0,0,0.04248971193415638,27.193415637860078,0)" xlink:href="#bC"/><use transform="matrix(0.04248971193415638,0,0,0.04248971193415638,35.691358024691354,0)" xlink:href="#bE"/><use transform="matrix(0.04248971193415638,0,0,0.04248971193415638,43.3395061728395,0)" xlink:href="#bD"/></g><path fill="#b2b2b2" d="M27 0v-27h64v-190l-56 39v-29l58-41h29v221h61V0H27" id="bH"/><path fill="#b2b2b2" d="M101-251c82-7 93 87 43 132L82-64C71-53 59-42 53-27h129V0H18c2-99 128-94 128-182 0-28-16-43-45-43s-46 15-49 41l-32-3c6-41 34-60 81-64" id="bI"/><path fill="#b2b2b2" d="M68-38c1 34 0 65-14 84H32c9-13 17-26 17-46H33v-38h35" id="bJ"/><g id="C"><use transform="matrix(0.04248971193415638,0,0,0.04248971193415638,0,0)" xlink:href="#bH"/><use transform="matrix(0.04248971193415638,0,0,0.04248971193415638,8.497942386831275,0)" xlink:href="#bI"/><use transform="matrix(0.04248971193415638,0,0,0.04248971193415638,16.99588477366255,0)" xlink:href="#bJ"/></g><path fill="#b2b2b2" d="M101-251c68 0 85 55 85 127S166 4 100 4C33 4 14-52 14-124c0-73 17-127 87-127zm-1 229c47 0 54-49 54-102s-4-102-53-102c-51 0-55 48-55 102 0 53 5 102 54 102" id="bK"/><path fill="#b2b2b2" d="M99-251c64 0 84 50 84 122C183-37 130 33 47-8c-14-7-20-23-25-40l30-5c6 39 69 39 84 7 9-19 16-44 16-74-10 22-31 35-62 35-49 0-73-33-73-83 0-54 28-83 82-83zm-1 141c31-1 51-18 51-49 0-36-14-67-51-67-34 0-49 23-49 58 0 34 15 58 49 58" id="bL"/><g id="D"><use transform="matrix(0.04248971193415638,0,0,0.04248971193415638,0,0)" xlink:href="#bI"/><use transform="matrix(0.04248971193415638,0,0,0.04248971193415638,8.497942386831275,0)" xlink:href="#bK"/><use transform="matrix(0.04248971193415638,0,0,0.04248971193415638,16.99588477366255,0)" xlink:href="#bH"/><use transform="matrix(0.04248971193415638,0,0,0.04248971193415638,25.493827160493822,0)" xlink:href="#bL"/></g><path fill="#b2b2b2" d="M194 0L95-120 63-95V0H30v-248h33v124l119-124h40L117-140 236 0h-42" id="bM"/><path fill="#b2b2b2" d="M108 0H70L1-190h34L89-25l56-165h34" id="bN"/><path fill="#b2b2b2" d="M24-231v-30h32v30H24zM24 0v-190h32V0H24" id="bO"/><g id="E"><use transform="matrix(0.04248971193415638,0,0,0.04248971193415638,0,0)" xlink:href="#bM"/><use transform="matrix(0.04248971193415638,0,0,0.04248971193415638,10.19753086419753,0)" xlink:href="#bt"/><use transform="matrix(0.04248971193415638,0,0,0.04248971193415638,18.695473251028805,0)" xlink:href="#bN"/><use transform="matrix(0.04248971193415638,0,0,0.04248971193415638,26.343621399176953,0)" xlink:href="#bO"/><use transform="matrix(0.04248971193415638,0,0,0.04248971193415638,29.700308641975308,0)" xlink:href="#bw"/></g><path fill="#b2b2b2" d="M153-248C145-148 188 4 80 4 36 3 13-21 6-62l32-5c4 25 16 42 43 43 27 0 39-20 39-49v-147H72v-28h81" id="bP"/><path fill="#b2b2b2" d="M100-194c62-1 85 37 85 99 1 63-27 99-86 99S16-35 15-95c0-66 28-99 85-99zM99-20c44 1 53-31 53-75 0-43-8-75-51-75s-53 32-53 75 10 74 51 75" id="bQ"/><path fill="#b2b2b2" d="M100-194c63 0 86 42 84 106H49c0 40 14 67 53 68 26 1 43-12 49-29l28 8c-11 28-37 45-77 45C44 4 14-33 15-96c1-61 26-98 85-98zm52 81c6-60-76-77-97-28-3 7-6 17-6 28h103zm-74-98c8-23 27-35 38-54h36v5l-58 49H78" id="bR"/><g id="F"><use transform="matrix(0.04248971193415638,0,0,0.04248971193415638,0,0)" xlink:href="#bP"/><use transform="matrix(0.04248971193415638,0,0,0.04248971193415638,7.648148148148148,0)" xlink:href="#bQ"/><use transform="matrix(0.04248971193415638,0,0,0.04248971193415638,16.14609053497942,0)" xlink:href="#bE"/><use transform="matrix(0.04248971193415638,0,0,0.04248971193415638,23.79423868312757,0)" xlink:href="#bR"/></g><path fill="#b2b2b2" d="M197 0v-115H63V0H30v-248h33v105h134v-105h34V0h-34" id="bS"/><path fill="#b2b2b2" d="M9 0v-24l116-142H16v-24h144v24L44-24h123V0H9" id="bT"/><g id="G"><use transform="matrix(0.04248971193415638,0,0,0.04248971193415638,0,0)" xlink:href="#bS"/><use transform="matrix(0.04248971193415638,0,0,0.04248971193415638,11.004835390946502,0)" xlink:href="#bt"/><use transform="matrix(0.04248971193415638,0,0,0.04248971193415638,19.502777777777776,0)" xlink:href="#bx"/><use transform="matrix(0.04248971193415638,0,0,0.04248971193415638,24.559053497942386,0)" xlink:href="#bw"/><use transform="matrix(0.04248971193415638,0,0,0.04248971193415638,33.05699588477366,0)" xlink:href="#bv"/><use transform="matrix(0.04248971193415638,0,0,0.04248971193415638,41.55493827160494,0)" xlink:href="#bw"/><use transform="matrix(0.04248971193415638,0,0,0.04248971193415638,50.05288065843621,0)" xlink:href="#bp"/><use transform="matrix(0.04248971193415638,0,0,0.04248971193415638,58.5508230452675,0)" xlink:href="#bt"/><use transform="matrix(0.04248971193415638,0,0,0.04248971193415638,67.04876543209876,0)" xlink:href="#bT"/></g><path fill="#b2b2b2" d="M240 0l2-218c-23 76-54 145-80 218h-23L58-218 59 0H30v-248h44l77 211c21-75 51-140 76-211h43V0h-30" id="bU"/><path fill="#b2b2b2" d="M145-31C134-9 116 4 85 4 32 4 16-35 15-94c0-59 17-99 70-100 32-1 48 14 60 33 0-11-1-24 2-32h30l-1 268h-32zM93-21c41 0 51-33 51-76s-8-73-50-73c-40 0-46 35-46 75s5 74 45 74" id="bV"/><path fill="#b2b2b2" d="M34 0v-190h32V0H34zM24-211c8-23 27-35 38-54h36v5l-58 49H24" id="bW"/><g id="H"><use transform="matrix(0.04248971193415638,0,0,0.04248971193415638,0,0)" xlink:href="#bU"/><use transform="matrix(0.04248971193415638,0,0,0.04248971193415638,12.704423868312757,0)" xlink:href="#bz"/><use transform="matrix(0.04248971193415638,0,0,0.04248971193415638,21.20236625514403,0)" xlink:href="#bx"/><use transform="matrix(0.04248971193415638,0,0,0.04248971193415638,26.25864197530864,0)" xlink:href="#bx"/><use transform="matrix(0.04248971193415638,0,0,0.04248971193415638,31.314917695473248,0)" xlink:href="#bx"/><use transform="matrix(0.04248971193415638,0,0,0.04248971193415638,36.37119341563786,0)" xlink:href="#bQ"/><use transform="matrix(0.04248971193415638,0,0,0.04248971193415638,44.86913580246913,0)" xlink:href="#bV"/><use transform="matrix(0.04248971193415638,0,0,0.04248971193415638,53.36707818930042,0)" xlink:href="#bC"/><use transform="matrix(0.04248971193415638,0,0,0.04248971193415638,61.86502057613169,0)" xlink:href="#bW"/><use transform="matrix(0.04248971193415638,0,0,0.04248971193415638,66.11399176954733,0)" xlink:href="#bw"/></g><g id="I"><use transform="matrix(0.04320987654320988,0,0,0.04320987654320988,0,0)" xlink:href="#ay"/><use transform="matrix(0.04320987654320988,0,0,0.04320987654320988,11.19135802469136,0)" xlink:href="#aG"/><use transform="matrix(0.04320987654320988,0,0,0.04320987654320988,19.833333333333336,0)" xlink:href="#au"/><use transform="matrix(0.04320987654320988,0,0,0.04320987654320988,28.47530864197531,0)" xlink:href="#aF"/><use transform="matrix(0.04320987654320988,0,0,0.04320987654320988,36.25308641975309,0)" xlink:href="#aM"/></g><path fill="#fff" d="M47-170H22l-4-78h33" id="bX"/><g id="J"><use transform="matrix(0.04320987654320988,0,0,0.04320987654320988,0,0)" xlink:href="#aC"/><use transform="matrix(0.04320987654320988,0,0,0.04320987654320988,4.320987654320988,0)" xlink:href="#aD"/><use transform="matrix(0.04320987654320988,0,0,0.04320987654320988,12.962962962962964,0)" xlink:href="#au"/><use transform="matrix(0.04320987654320988,0,0,0.04320987654320988,21.604938271604944,0)" xlink:href="#az"/><use transform="matrix(0.04320987654320988,0,0,0.04320987654320988,30.24691358024692,0)" xlink:href="#bX"/><use transform="matrix(0.04320987654320988,0,0,0.04320987654320988,33.18518518518519,0)" xlink:href="#aB"/></g><g id="K"><use transform="matrix(0.04320987654320988,0,0,0.04320987654320988,0,0)" xlink:href="#aE"/><use transform="matrix(0.04320987654320988,0,0,0.04320987654320988,10.370370370370372,0)" xlink:href="#at"/><use transform="matrix(0.04320987654320988,0,0,0.04320987654320988,14.691358024691363,0)" xlink:href="#az"/><use transform="matrix(0.04320987654320988,0,0,0.04320987654320988,23.333333333333336,0)" xlink:href="#at"/><use transform="matrix(0.04320987654320988,0,0,0.04320987654320988,27.654320987654323,0)" xlink:href="#aJ"/><use transform="matrix(0.04320987654320988,0,0,0.04320987654320988,36.2962962962963,0)" xlink:href="#aB"/></g><path fill="#666" d="M18-100v-36l175-74v27L42-118l151 64v27" id="bY"/><path fill="#666" d="M33 0v-248h34V0H33" id="bZ"/><path fill="#666" d="M117-194c89-4 53 116 60 194h-32v-121c0-31-8-49-39-48C34-167 62-67 57 0H25l-1-190h30c1 10-1 24 2 32 11-22 29-35 61-36" id="ca"/><path fill="#666" d="M96-169c-40 0-48 33-48 73s9 75 48 75c24 0 41-14 43-38l32 2c-6 37-31 61-74 61-59 0-76-41-82-99-10-93 101-131 147-64 4 7 5 14 7 22l-32 3c-4-21-16-35-41-35" id="cb"/><path fill="#666" d="M24 0v-261h32V0H24" id="cc"/><path fill="#666" d="M84 4C-5 8 30-112 23-190h32v120c0 31 7 50 39 49 72-2 45-101 50-169h31l1 190h-30c-1-10 1-25-2-33-11 22-28 36-60 37" id="cd"/><path fill="#666" d="M85-194c31 0 48 13 60 33l-1-100h32l1 261h-30c-2-10 0-23-3-31C134-8 116 4 85 4 32 4 16-35 15-94c0-66 23-100 70-100zm9 24c-40 0-46 34-46 75 0 40 6 74 45 74 42 0 51-32 51-76 0-42-9-74-50-73" id="ce"/><path fill="#666" d="M100-194c63 0 86 42 84 106H49c0 40 14 67 53 68 26 1 43-12 49-29l28 8c-11 28-37 45-77 45C44 4 14-33 15-96c1-61 26-98 85-98zm52 81c6-60-76-77-97-28-3 7-6 17-6 28h103" id="cf"/><path fill="#666" d="M18-27v-27l151-64-151-65v-27l175 74v36" id="cg"/><g id="L"><use transform="matrix(0.04320987654320988,0,0,0.04320987654320988,0,0)" xlink:href="#bY"/><use transform="matrix(0.04320987654320988,0,0,0.04320987654320988,9.074074074074074,0)" xlink:href="#bY"/><use transform="matrix(0.04320987654320988,0,0,0.04320987654320988,18.14814814814815,0)" xlink:href="#bZ"/><use transform="matrix(0.04320987654320988,0,0,0.04320987654320988,22.46913580246914,0)" xlink:href="#ca"/><use transform="matrix(0.04320987654320988,0,0,0.04320987654320988,31.111111111111114,0)" xlink:href="#cb"/><use transform="matrix(0.04320987654320988,0,0,0.04320987654320988,38.88888888888889,0)" xlink:href="#cc"/><use transform="matrix(0.04320987654320988,0,0,0.04320987654320988,42.302469135802475,0)" xlink:href="#cd"/><use transform="matrix(0.04320987654320988,0,0,0.04320987654320988,50.94444444444445,0)" xlink:href="#ce"/><use transform="matrix(0.04320987654320988,0,0,0.04320987654320988,59.586419753086425,0)" xlink:href="#cf"/><use transform="matrix(0.04320987654320988,0,0,0.04320987654320988,68.2283950617284,0)" xlink:href="#cg"/><use transform="matrix(0.04320987654320988,0,0,0.04320987654320988,77.30246913580248,0)" xlink:href="#cg"/></g><path fill="#fff" d="M108 0H70L1-190h34L89-25l56-165h34" id="ch"/><g id="M"><use transform="matrix(0.04320987654320988,0,0,0.04320987654320988,0,0)" xlink:href="#aC"/><use transform="matrix(0.04320987654320988,0,0,0.04320987654320988,4.320987654320988,0)" xlink:href="#aq"/><use transform="matrix(0.04320987654320988,0,0,0.04320987654320988,12.962962962962964,0)" xlink:href="#ch"/><use transform="matrix(0.04320987654320988,0,0,0.04320987654320988,20.740740740740744,0)" xlink:href="#au"/><use transform="matrix(0.04320987654320988,0,0,0.04320987654320988,29.382716049382726,0)" xlink:href="#aB"/><use transform="matrix(0.04320987654320988,0,0,0.04320987654320988,37.1604938271605,0)" xlink:href="#at"/><use transform="matrix(0.04320987654320988,0,0,0.04320987654320988,41.48148148148149,0)" xlink:href="#an"/><use transform="matrix(0.04320987654320988,0,0,0.04320987654320988,50.12345679012346,0)" xlink:href="#av"/></g><g id="N"><use transform="matrix(0.04320987654320988,0,0,0.04320987654320988,0,0)" xlink:href="#aH"/><use transform="matrix(0.04320987654320988,0,0,0.04320987654320988,12.919753086419755,0)" xlink:href="#aJ"/><use transform="matrix(0.04320987654320988,0,0,0.04320987654320988,21.56172839506173,0)" xlink:href="#aB"/><use transform="matrix(0.04320987654320988,0,0,0.04320987654320988,29.33950617283951,0)" xlink:href="#at"/></g><g id="O"><use transform="matrix(0.04320987654320988,0,0,0.04320987654320988,0,0)" xlink:href="#az"/><use transform="matrix(0.04320987654320988,0,0,0.04320987654320988,8.641975308641976,0)" xlink:href="#aB"/><use transform="matrix(0.04320987654320988,0,0,0.04320987654320988,16.419753086419753,0)" xlink:href="#aM"/></g><path fill="#fff" d="M101-234c-31-9-42 10-38 44h38v23H63V0H32v-167H5v-23h27c-7-52 17-82 69-68v24" id="ci"/><g id="P"><use transform="matrix(0.04320987654320988,0,0,0.04320987654320988,0,0)" xlink:href="#ci"/><use transform="matrix(0.04320987654320988,0,0,0.04320987654320988,4.320987654320988,0)" xlink:href="#an"/><use transform="matrix(0.04320987654320988,0,0,0.04320987654320988,12.962962962962964,0)" xlink:href="#av"/></g><path fill="#fff" d="M210-169c-67 3-38 105-44 169h-31v-121c0-29-5-50-35-48C34-165 62-65 56 0H25l-1-190h30c1 10-1 24 2 32 10-44 99-50 107 0 11-21 27-35 58-36 85-2 47 119 55 194h-31v-121c0-29-5-49-35-48" id="cj"/><g id="Q"><use transform="matrix(0.04320987654320988,0,0,0.04320987654320988,0,0)" xlink:href="#cj"/><use transform="matrix(0.04320987654320988,0,0,0.04320987654320988,12.919753086419755,0)" xlink:href="#au"/><use transform="matrix(0.04320987654320988,0,0,0.04320987654320988,21.56172839506173,0)" xlink:href="#au"/><use transform="matrix(0.04320987654320988,0,0,0.04320987654320988,30.203703703703713,0)" xlink:href="#at"/><use transform="matrix(0.04320987654320988,0,0,0.04320987654320988,34.5246913580247,0)" xlink:href="#ap"/><use transform="matrix(0.04320987654320988,0,0,0.04320987654320988,37.93827160493828,0)" xlink:href="#aq"/><use transform="matrix(0.04320987654320988,0,0,0.04320987654320988,46.580246913580254,0)" xlink:href="#ao"/></g><g id="R"><use transform="matrix(0.05,0,0,0.05,0,0)" xlink:href="#am"/><use transform="matrix(0.05,0,0,0.05,10,0)" xlink:href="#ap"/><use transform="matrix(0.05,0,0,0.05,13.949999999999998,0)" xlink:href="#aB"/><use transform="matrix(0.05,0,0,0.05,22.95,0)" xlink:href="#at"/></g><g id="S"><use transform="matrix(0.05,0,0,0.05,0,0)" xlink:href="#aC"/><use transform="matrix(0.05,0,0,0.05,5,0)" xlink:href="#aD"/><use transform="matrix(0.05,0,0,0.05,15,0)" xlink:href="#au"/><use transform="matrix(0.05,0,0,0.05,25,0)" xlink:href="#az"/></g><path fill="#fff" d="M232-93c-1 65-40 97-104 97C67 4 28-28 28-90v-158h33c8 89-33 224 67 224 102 0 64-133 71-224h33v155" id="ck"/><g id="T"><use transform="matrix(0.05,0,0,0.05,0,0)" xlink:href="#ck"/><use transform="matrix(0.05,0,0,0.05,12.950000000000001,0)" xlink:href="#aK"/><use transform="matrix(0.05,0,0,0.05,22.950000000000003,0)" xlink:href="#aD"/><use transform="matrix(0.05,0,0,0.05,32.95,0)" xlink:href="#az"/><use transform="matrix(0.05,0,0,0.05,42.95,0)" xlink:href="#at"/><use transform="matrix(0.05,0,0,0.05,47.95,0)" xlink:href="#au"/></g><g id="U"><use transform="matrix(0.05,0,0,0.05,0,0)" xlink:href="#aC"/><use transform="matrix(0.05,0,0,0.05,5,0)" xlink:href="#aD"/><use transform="matrix(0.05,0,0,0.05,15,0)" xlink:href="#au"/><use transform="matrix(0.05,0,0,0.05,25,0)" xlink:href="#az"/></g><g id="V"><use transform="matrix(0.05,0,0,0.05,0,0)" xlink:href="#aC"/><use transform="matrix(0.05,0,0,0.05,5,0)" xlink:href="#aq"/><use transform="matrix(0.05,0,0,0.05,15,0)" xlink:href="#ch"/><use transform="matrix(0.05,0,0,0.05,24,0)" xlink:href="#au"/><use transform="matrix(0.05,0,0,0.05,34,0)" xlink:href="#aB"/><use transform="matrix(0.05,0,0,0.05,43,0)" xlink:href="#at"/><use transform="matrix(0.05,0,0,0.05,48,0)" xlink:href="#an"/><use transform="matrix(0.05,0,0,0.05,58,0)" xlink:href="#av"/><use transform="matrix(0.05,0,0,0.05,63.95,0)" xlink:href="#aB"/></g><path fill="#fff" d="M24 0v-248h195v40H76v63h132v40H76v65h150V0H24" id="cl"/><path fill="#fff" d="M144 0l-44-69L55 0H2l70-98-66-92h53l41 62 40-62h54l-67 91 71 99h-54" id="cm"/><path fill="#fff" d="M115-3C79 11 28 4 28-45v-112H4v-33h27l15-45h31v45h36v33H77v99c-1 23 16 31 38 25v30" id="cn"/><path fill="#fff" d="M185-48c-13 30-37 53-82 52C43 2 14-33 14-96s30-98 90-98c62 0 83 45 84 108H66c0 31 8 55 39 56 18 0 30-7 34-22zm-45-69c5-46-57-63-70-21-2 6-4 13-4 21h74" id="co"/><path fill="#fff" d="M135-194c87-1 58 113 63 194h-50c-7-57 23-157-34-157-59 0-34 97-39 157H25l-1-190h47c2 12-1 28 3 38 12-26 28-41 61-42" id="cp"/><path fill="#fff" d="M137-138c1-29-70-34-71-4 15 46 118 7 119 86 1 83-164 76-172 9l43-7c4 19 20 25 44 25 33 8 57-30 24-41C81-84 22-81 20-136c-2-80 154-74 161-7" id="cq"/><path fill="#fff" d="M25-224v-37h50v37H25zM25 0v-190h50V0H25" id="cr"/><path fill="#fff" d="M110-194c64 0 96 36 96 99 0 64-35 99-97 99-61 0-95-36-95-99 0-62 34-99 96-99zm-1 164c35 0 45-28 45-65 0-40-10-65-43-65-34 0-45 26-45 65 0 36 10 65 43 65" id="cs"/><g id="W"><use transform="matrix(0.05,0,0,0.05,0,0)" xlink:href="#cl"/><use transform="matrix(0.05,0,0,0.05,12,0)" xlink:href="#cm"/><use transform="matrix(0.05,0,0,0.05,22,0)" xlink:href="#cn"/><use transform="matrix(0.05,0,0,0.05,27.950000000000003,0)" xlink:href="#co"/><use transform="matrix(0.05,0,0,0.05,37.95,0)" xlink:href="#cp"/><use transform="matrix(0.05,0,0,0.05,48.900000000000006,0)" xlink:href="#cq"/><use transform="matrix(0.05,0,0,0.05,58.900000000000006,0)" xlink:href="#cr"/><use transform="matrix(0.05,0,0,0.05,63.900000000000006,0)" xlink:href="#cs"/><use transform="matrix(0.05,0,0,0.05,74.85000000000001,0)" xlink:href="#cp"/></g><path fill="#fff" d="M24-248c93 1 206-16 204 79-1 75-69 88-152 82V0H24v-248zm52 121c47 0 100 7 100-41 0-47-54-39-100-39v80" id="ct"/><g id="X"><use transform="matrix(0.05,0,0,0.05,0,0)" xlink:href="#ct"/><use transform="matrix(0.05,0,0,0.05,12,0)" xlink:href="#cs"/><use transform="matrix(0.05,0,0,0.05,22.950000000000003,0)" xlink:href="#cr"/><use transform="matrix(0.05,0,0,0.05,27.950000000000003,0)" xlink:href="#cp"/><use transform="matrix(0.05,0,0,0.05,38.900000000000006,0)" xlink:href="#cn"/><use transform="matrix(0.05,0,0,0.05,44.85000000000001,0)" xlink:href="#cq"/></g><g id="Z"><use transform="matrix(0.05,0,0,0.05,0,0)" xlink:href="#ck"/><use transform="matrix(0.05,0,0,0.05,12.950000000000001,0)" xlink:href="#aK"/><use transform="matrix(0.05,0,0,0.05,22.950000000000003,0)" xlink:href="#aD"/><use transform="matrix(0.05,0,0,0.05,32.95,0)" xlink:href="#az"/><use transform="matrix(0.05,0,0,0.05,42.95,0)" xlink:href="#at"/><use transform="matrix(0.05,0,0,0.05,47.95,0)" xlink:href="#au"/></g><path fill="#666" d="M141 0L90-78 38 0H4l68-98-65-92h35l48 74 47-74h35l-64 92 68 98h-35" id="cu"/><path fill="#666" d="M59-47c-2 24 18 29 38 22v24C64 9 27 4 27-40v-127H5v-23h24l9-43h21v43h35v23H59v120" id="cv"/><path fill="#666" d="M135-143c-3-34-86-38-87 0 15 53 115 12 119 90S17 21 10-45l28-5c4 36 97 45 98 0-10-56-113-15-118-90-4-57 82-63 122-42 12 7 21 19 24 35" id="cw"/><g id="aa"><use transform="matrix(0.04320987654320988,0,0,0.04320987654320988,0,0)" xlink:href="#bY"/><use transform="matrix(0.04320987654320988,0,0,0.04320987654320988,9.074074074074074,0)" xlink:href="#bY"/><use transform="matrix(0.04320987654320988,0,0,0.04320987654320988,18.14814814814815,0)" xlink:href="#cf"/><use transform="matrix(0.04320987654320988,0,0,0.04320987654320988,26.790123456790127,0)" xlink:href="#cu"/><use transform="matrix(0.04320987654320988,0,0,0.04320987654320988,34.567901234567906,0)" xlink:href="#cv"/><use transform="matrix(0.04320987654320988,0,0,0.04320987654320988,38.88888888888889,0)" xlink:href="#cf"/><use transform="matrix(0.04320987654320988,0,0,0.04320987654320988,47.53086419753087,0)" xlink:href="#ca"/><use transform="matrix(0.04320987654320988,0,0,0.04320987654320988,56.17283950617284,0)" xlink:href="#ce"/><use transform="matrix(0.04320987654320988,0,0,0.04320987654320988,64.81481481481482,0)" xlink:href="#cw"/><use transform="matrix(0.04320987654320988,0,0,0.04320987654320988,72.59259259259261,0)" xlink:href="#cg"/><use transform="matrix(0.04320987654320988,0,0,0.04320987654320988,81.66666666666669,0)" xlink:href="#cg"/></g><g id="ab"><use transform="matrix(0.05,0,0,0.05,0,0)" xlink:href="#ay"/><use transform="matrix(0.05,0,0,0.05,12.950000000000001,0)" xlink:href="#aG"/><use transform="matrix(0.05,0,0,0.05,22.950000000000003,0)" xlink:href="#au"/><use transform="matrix(0.05,0,0,0.05,32.95,0)" xlink:href="#aF"/><use transform="matrix(0.05,0,0,0.05,41.95,0)" xlink:href="#aM"/></g><g id="ac"><use transform="matrix(0.05,0,0,0.05,0,0)" xlink:href="#aw"/><use transform="matrix(0.05,0,0,0.05,12,0)" xlink:href="#an"/><use transform="matrix(0.05,0,0,0.05,22,0)" xlink:href="#an"/><use transform="matrix(0.05,0,0,0.05,32,0)" xlink:href="#aM"/><use transform="matrix(0.05,0,0,0.05,41,0)" xlink:href="#aH"/><use transform="matrix(0.05,0,0,0.05,55.95,0)" xlink:href="#az"/><use transform="matrix(0.05,0,0,0.05,65.95,0)" xlink:href="#av"/><use transform="matrix(0.05,0,0,0.05,71.9,0)" xlink:href="#aM"/></g><g id="ad"><use transform="matrix(0.05,0,0,0.05,0,0)" xlink:href="#am"/><use transform="matrix(0.05,0,0,0.05,10,0)" xlink:href="#ap"/><use transform="matrix(0.05,0,0,0.05,13.949999999999998,0)" xlink:href="#aB"/><use transform="matrix(0.05,0,0,0.05,22.95,0)" xlink:href="#at"/></g><g id="ae"><use transform="matrix(0.05,0,0,0.05,0,0)" xlink:href="#aC"/><use transform="matrix(0.05,0,0,0.05,5,0)" xlink:href="#aD"/><use transform="matrix(0.05,0,0,0.05,15,0)" xlink:href="#au"/><use transform="matrix(0.05,0,0,0.05,25,0)" xlink:href="#az"/><use transform="matrix(0.05,0,0,0.05,35,0)" xlink:href="#bX"/><use transform="matrix(0.05,0,0,0.05,38.4,0)" xlink:href="#aB"/></g><g id="af"><use transform="matrix(0.05,0,0,0.05,0,0)" xlink:href="#aB"/><use transform="matrix(0.05,0,0,0.05,9,0)" xlink:href="#at"/><use transform="matrix(0.05,0,0,0.05,14,0)" xlink:href="#az"/><use transform="matrix(0.05,0,0,0.05,24,0)" xlink:href="#at"/><use transform="matrix(0.05,0,0,0.05,29,0)" xlink:href="#aJ"/><use transform="matrix(0.05,0,0,0.05,39,0)" xlink:href="#aB"/></g><g id="ah"><use transform="matrix(0.04320987654320988,0,0,0.04320987654320988,0,0)" xlink:href="#aL"/><use transform="matrix(0.04320987654320988,0,0,0.04320987654320988,9.506172839506174,0)" xlink:href="#au"/><use transform="matrix(0.04320987654320988,0,0,0.04320987654320988,18.148148148148152,0)" xlink:href="#av"/><use transform="matrix(0.04320987654320988,0,0,0.04320987654320988,23.290123456790127,0)" xlink:href="#ap"/><use transform="matrix(0.04320987654320988,0,0,0.04320987654320988,26.703703703703713,0)" xlink:href="#ci"/><use transform="matrix(0.04320987654320988,0,0,0.04320987654320988,31.024691358024693,0)" xlink:href="#ax"/></g><path fill="#fff" d="M206 0h-36l-40-164L89 0H53L-1-190h32L70-26l43-164h34l41 164 42-164h31" id="cx"/><g id="ai"><use transform="matrix(0.04320987654320988,0,0,0.04320987654320988,0,0)" xlink:href="#aA"/><use transform="matrix(0.04320987654320988,0,0,0.04320987654320988,10.370370370370372,0)" xlink:href="#az"/><use transform="matrix(0.04320987654320988,0,0,0.04320987654320988,19.01234567901235,0)" xlink:href="#aB"/><use transform="matrix(0.04320987654320988,0,0,0.04320987654320988,26.790123456790127,0)" xlink:href="#aB"/><use transform="matrix(0.04320987654320988,0,0,0.04320987654320988,34.567901234567906,0)" xlink:href="#cx"/><use transform="matrix(0.04320987654320988,0,0,0.04320987654320988,45.75925925925927,0)" xlink:href="#an"/><use transform="matrix(0.04320987654320988,0,0,0.04320987654320988,54.40123456790124,0)" xlink:href="#av"/><use transform="matrix(0.04320987654320988,0,0,0.04320987654320988,59.543209876543216,0)" xlink:href="#aD"/></g><g id="aj"><use transform="matrix(0.05,0,0,0.05,0,0)" xlink:href="#ay"/><use transform="matrix(0.05,0,0,0.05,12.950000000000001,0)" xlink:href="#aG"/><use transform="matrix(0.05,0,0,0.05,22.950000000000003,0)" xlink:href="#au"/><use transform="matrix(0.05,0,0,0.05,32.95,0)" xlink:href="#aF"/><use transform="matrix(0.05,0,0,0.05,41.95,0)" xlink:href="#aM"/></g><g id="ak"><use transform="matrix(0.05,0,0,0.05,0,0)" xlink:href="#aC"/><use transform="matrix(0.05,0,0,0.05,5,0)" xlink:href="#aq"/><use transform="matrix(0.05,0,0,0.05,15,0)" xlink:href="#at"/><use transform="matrix(0.05,0,0,0.05,20,0)" xlink:href="#au"/><use transform="matrix(0.05,0,0,0.05,30,0)" xlink:href="#av"/><use transform="matrix(0.05,0,0,0.05,35.95,0)" xlink:href="#au"/><use transform="matrix(0.05,0,0,0.05,45.95,0)" xlink:href="#aB"/><use transform="matrix(0.05,0,0,0.05,54.95,0)" xlink:href="#at"/><use transform="matrix(0.05,0,0,0.05,59.95,0)" xlink:href="#au"/><use transform="matrix(0.05,0,0,0.05,69.95,0)" xlink:href="#aD"/></g><g id="al"><use transform="matrix(0.05,0,0,0.05,0,0)" xlink:href="#aC"/><use transform="matrix(0.05,0,0,0.05,5,0)" xlink:href="#aq"/><use transform="matrix(0.05,0,0,0.05,15,0)" xlink:href="#ch"/><use transform="matrix(0.05,0,0,0.05,24,0)" xlink:href="#au"/><use transform="matrix(0.05,0,0,0.05,34,0)" xlink:href="#aB"/><use transform="matrix(0.05,0,0,0.05,43,0)" xlink:href="#at"/><use transform="matrix(0.05,0,0,0.05,48,0)" xlink:href="#an"/><use transform="matrix(0.05,0,0,0.05,58,0)" xlink:href="#av"/><use transform="matrix(0.05,0,0,0.05,63.95,0)" xlink:href="#aB"/></g></defs></g></svg>